<svg width="372" height="506" viewBox="0 0 372 506" fill="none" xmlns="http://www.w3.org/2000/svg">
<path d="M221.331 488.295C221.331 488.295 216.764 472.361 218.983 471.163C221.2 469.964 226.515 469.308 227.79 470.334C229.064 471.361 229.348 488.501 227.374 490.81C225.399 493.121 222.697 492.496 221.331 488.295V488.295Z" fill="#EFD9D3"/>
<path d="M205.487 499.738C205.487 499.738 205.36 502.1 207.455 503.151C212.655 505.757 229.874 502.879 230.714 501.288C231.555 499.697 231.25 497.682 231.25 497.682L205.487 499.738V499.738Z" fill="#3E4268"/>
<path d="M222.345 482.593C222.345 482.593 226.796 482.685 228.81 481.941C230.643 481.264 232.299 497.633 230.771 499.597C229.246 501.56 218.286 500.016 218.286 500.016C218.286 500.016 219.699 496.095 220.527 491.541C221.358 486.988 218.22 483.456 222.345 482.593Z" fill="#3E4268"/>
<path d="M218.024 488.943C218.024 488.943 214.247 481.662 217.365 481.014C220.484 480.366 221.388 480.891 223.139 481.943C224.89 482.994 221.996 488.616 221.681 489.463C221.368 490.311 218.024 488.943 218.024 488.943V488.943Z" fill="#575E84"/>
<path d="M213.435 493.764C213.435 493.764 217.349 494.06 218.826 496.144C220.302 498.228 224.276 491.455 223.11 489.101C221.945 486.749 217.061 488.414 217.061 488.414C217.061 488.414 218.012 492.989 213.435 493.764V493.764Z" fill="#575E84"/>
<path d="M205.921 501.202C208.776 503.497 218.568 503.932 220.568 501.542C222.57 499.153 220.218 490.44 211.326 492.477C207.659 493.318 203.921 499.594 205.921 501.202V501.202Z" fill="#575E84"/>
<path opacity="0.2" d="M212.97 492.929C211.751 493.011 210.778 493.31 210.009 493.754C210.297 494.185 210.606 494.598 210.938 494.995C211.835 494.447 213.046 494.009 214.533 494.175C217.954 494.557 218.046 494.68 218.046 494.68C218.046 494.68 215.84 492.735 212.97 492.929ZM208.923 495.046C208.696 495.431 208.864 495.928 209.285 496.077C209.551 496.171 209.847 496.099 210.036 495.887C210.191 495.713 210.412 495.488 210.688 495.251C210.361 494.854 210.052 494.443 209.764 494.017C209.428 494.33 209.146 494.674 208.923 495.046V495.046Z" fill="white"/>
<path d="M253.26 212.552L193.965 217.608C193.965 217.608 214.968 409.986 217.435 476.206L230.886 474.752C230.886 474.752 285.909 231.102 253.26 212.552Z" fill="#3E4268"/>
<path opacity="0.2" d="M247.613 374.754C244.065 369.778 241.496 364.14 239.756 358.295C237.956 352.247 236.989 345.973 236.486 339.694C236.212 336.264 235.991 332.794 236.115 329.354C236.269 325.12 236.762 320.909 237.107 316.692C237.76 308.757 237.87 300.713 234.123 293.467C230.686 286.816 225.468 281.284 221.619 274.883C219.662 271.627 218.069 268.144 217.367 264.393C216.707 260.859 216.754 257.166 217.355 253.626C218.308 248.026 221.043 240.696 217.292 235.563C213.94 230.973 208.234 229.305 202.937 231.254C200.186 232.266 197.795 234.092 195.979 236.375C194.728 224.609 193.963 217.61 193.963 217.61L253.258 212.555C271.943 223.171 261.911 307.505 249.914 377.709C249.117 376.752 248.339 375.775 247.613 374.754V374.754Z" fill="#3E4268"/>
<path d="M283.475 489.949C284.064 492.119 284.577 493.651 284.577 493.651C284.577 493.651 292.388 506.98 296.662 491.676V491.669C296.947 490.651 297.182 489.483 297.47 488.201C300.325 475.453 289.247 479.918 289.247 479.918C289.247 479.918 285.614 477.877 282.89 481.029C281.056 483.151 282.275 485.516 283.475 489.949V489.949Z" fill="#3E4268"/>
<path d="M293.505 466.667C293.398 472.938 294.445 485.548 294.445 485.548C292.766 491.029 289.275 491.9 286.66 488.945C284.706 486.738 282.399 473.811 280.315 466.839L293.505 466.667V466.667Z" fill="#EFD9D3"/>
<path d="M301.425 499.261C301.425 499.261 302.004 502.358 301.139 503.202C297.648 506.61 283.825 506.929 280.962 504.029C279.536 502.585 281.285 498.625 281.285 498.625L301.425 499.261Z" fill="#3E4268"/>
<path d="M293.987 475.705C293.987 475.705 294.513 487.681 293.227 489.974C291.938 492.267 288.514 494.025 287.234 491.248C285.954 488.471 284.103 477.04 285.604 475.93C287.105 474.821 293.652 474.012 293.987 475.705Z" fill="#575E84"/>
<path d="M292.934 491.111C292.934 491.111 297.754 479.973 294.396 481.685C290.116 483.865 288.073 482.957 284.849 482.319C282.305 481.816 286.473 490.717 286.895 491.479C287.316 492.242 292.934 491.111 292.934 491.111V491.111Z" fill="#575E84"/>
<path opacity="0.2" d="M283.475 489.949C284.064 492.119 284.577 493.651 284.577 493.651C284.577 493.651 292.388 506.979 296.662 491.676V491.669C296.515 491.054 296.374 490.418 296.239 489.769C295.2 488.931 294.075 488.315 292.961 488.076C288.637 487.162 285.535 488.174 283.475 489.949V489.949Z" fill="#231F20"/>
<path d="M300.869 501.188C297.214 504.227 284.518 505.01 281.868 501.953C279.217 498.897 282.076 487.54 293.662 489.986C298.438 490.995 303.43 499.059 300.869 501.188V501.188Z" fill="#575E84"/>
<path opacity="0.2" d="M291.537 490.608C293.122 490.688 294.392 491.054 295.398 491.612C295.034 492.179 294.642 492.721 294.222 493.244C293.046 492.553 291.464 492.011 289.537 492.26C285.105 492.833 284.989 492.993 284.989 492.993C284.989 492.993 287.809 490.42 291.537 490.608V490.608ZM296.834 493.267C297.137 493.76 296.93 494.408 296.388 494.61C296.045 494.739 295.66 494.651 295.411 494.381C295.142 494.093 294.854 493.822 294.55 493.571C294.967 493.05 295.357 492.51 295.722 491.952C296.165 492.346 296.54 492.786 296.834 493.267Z" fill="white"/>
<path d="M295.39 206.362C294.809 202.949 220.697 209.931 220.697 209.931L279.002 472.592L295.484 472.378C295.484 472.38 301.184 240.367 295.39 206.362V206.362Z" fill="#11314B"/>
<path opacity="0.2" d="M283.939 235.636C276.892 241.121 268.292 244.183 261.279 249.731C258.007 252.318 255.111 255.488 253.456 259.36C251.569 263.782 251.487 268.755 252.358 273.42C253.203 277.95 254.683 282.382 253.884 287.039C253.393 289.898 252.041 292.424 250.859 295.038C249.714 297.568 248.599 300.112 247.583 302.693C246.049 306.587 244.789 310.587 243.95 314.688L220.697 209.931C220.697 209.931 294.809 202.946 295.39 206.362C295.914 209.432 296.341 214.129 296.689 220.109C293.631 226.104 289.349 231.427 283.939 235.636V235.636Z" fill="#3E4268"/>
<path d="M338.388 32.5684C311.944 28.2941 329.229 14.9065 314.527 8.55624C299.824 2.22239 274.599 19.8926 267.39 15.5077C260.179 11.125 255.996 -6.25887 232.935 2.36965C225.372 5.20014 211.985 17.966 218.165 31.1C221.748 38.7141 221.084 44.1911 221.008 48.2875C220.887 55.5069 219.396 59.7711 225.965 71.9295C236.267 90.9904 254.442 72.9439 275.235 87.5116C298.114 103.56 318.182 108.434 333.96 106.08C352.509 103.319 365.161 90.5405 369.572 74.1199C377.726 43.6961 364.848 36.8428 338.388 32.5684V32.5684Z" fill="black"/>
<path opacity="0.2" d="M316.836 97.412C313.486 95.5059 310.007 93.6223 307.271 90.8552C304.246 87.7957 303.213 83.8178 302.082 79.7868C301.45 77.5331 300.732 75.312 299.544 73.2812C298.221 71.0213 296.37 69.0641 294.48 67.2684C290.78 63.7569 286.488 60.9673 282.236 58.1838C278.53 55.7583 274.798 53.2366 272.542 49.3038C271.458 47.412 270.779 45.2175 270.627 43.0394C270.45 40.4748 271.163 37.9552 271.077 35.3926C271.002 33.1307 270.196 31.0978 268.541 29.5435C266.987 28.0853 265.028 27.0647 263.218 25.9706C260.727 24.4633 258.489 22.6186 256.442 20.5754C257.81 25.6127 258.878 30.7296 259.649 35.8937C261.199 46.2708 261.711 56.8034 261.459 67.2868C261.345 72.0786 261.124 76.897 260.598 81.6725C265.271 82.3596 270.175 83.9651 275.235 87.5114C295.159 101.488 312.948 106.983 327.634 106.615C327.559 106.48 327.497 106.341 327.417 106.208C324.945 102.104 320.885 99.7169 316.836 97.412V97.412Z" fill="#3E4268"/>
<path d="M298.076 216.15C297.405 191.504 295.358 152.157 289.114 131.108C299.634 129.883 313.159 127.457 316.678 127.253C307.203 68.2379 260.531 55.5927 254.305 55.9751C212.84 58.5234 208.35 105.075 193.018 120.387C177.687 135.701 196.697 152.621 199.503 169.882C202.309 187.145 192.678 215.191 193.84 216.148C213.938 232.74 298.076 216.15 298.076 216.15Z" fill="#9AAEF8"/>
<path opacity="0.15" d="M283.639 201.147C286.96 205.693 293.122 211.188 278.728 219.379L298.076 216.152C297.405 191.506 295.355 152.159 289.114 131.11C289.324 131.086 289.543 131.057 289.758 131.032C288.561 127.785 286.889 124.654 285.279 121.692C284.023 119.383 282.59 117.177 281.052 115.048C280.047 113.659 279.054 112.262 277.935 110.969C279.569 114.015 281.172 117.074 282.561 120.244C285.134 126.116 287.355 132.689 286.555 139.191C286.373 140.677 286.087 142.248 285.438 143.606C284.71 145.13 283.59 146.402 282.528 147.698C281.598 148.834 280.285 150.249 280.203 151.795C280.131 153.108 281.279 154.118 281.518 155.382C282.033 158.119 280.501 160.383 278.499 162.086C276.276 163.976 273.66 165.389 271.292 167.085C265.402 171.302 259.598 175.805 252.781 178.378C258.436 182.01 264.359 185.207 269.975 188.902C275.094 192.269 279.998 196.161 283.639 201.147V201.147Z" fill="#3E4268"/>
<path d="M289.062 130.92L292.666 160.875C264.361 177.233 240.304 177.271 240.304 177.271L237.447 186.389C237.447 186.389 272.805 194.985 303.354 179.472C321.09 170.465 314.042 139.808 314.942 127.478C306.559 128.194 295.366 129.294 289.062 130.92Z" fill="#EBC0B8"/>
<path d="M266.762 188.354C264.598 186.902 261.88 187.276 259.575 186.215C258.428 185.687 257.403 184.826 256.78 183.718C256.148 182.599 256.344 181.443 256.117 180.237C255.753 178.302 253.822 176.94 252.049 175.958C244.748 177.261 240.306 177.271 240.306 177.271L237.449 186.389C237.449 186.389 250.229 189.489 267.055 188.597C266.952 188.518 266.873 188.428 266.762 188.354V188.354ZM290.67 161.965C293.564 162.8 296.276 164.184 298.789 165.829C300.059 166.659 301.35 167.514 302.53 168.469C303.315 169.105 304.144 169.915 305.08 170.422C304.6 168.725 303.246 167.279 302.041 166.049C300.309 164.282 298.339 162.708 296.81 160.751C294.108 157.294 292.928 152.441 292.537 148.152C292.136 143.747 292.654 138.98 296.534 136.235C300.117 133.699 304.698 133.394 308.784 132.135C312.255 131.065 312.232 130.456 314.525 127.515C306.074 128.265 295.266 129.321 289.063 130.92L292.666 160.875C291.993 161.264 291.339 161.595 290.67 161.965V161.965Z" fill="#E0AFA9"/>
<path d="M240.525 46.4714C240.525 46.4714 241.3 49.5759 240.997 54.9608C240.909 56.4885 238.825 67.1827 243.552 68.2339C251.601 70.0275 257.17 61.8448 257.17 61.8448L257.072 33.908L240.525 46.4714V46.4714Z" fill="#EBC0B8"/>
<path d="M240.39 52.1551L240.617 58.3131C240.617 58.3131 249.425 57.722 248.752 47.8623L240.39 52.1551V52.1551Z" fill="#E0AFA9"/>
<path d="M226.925 24.4042C226.925 24.4042 230.99 54.4558 239.193 52.8442C247.804 51.1528 255.41 43.551 256.487 38.5628C257.565 33.5727 257.072 33.9101 257.072 33.9101C257.072 33.9101 260.003 33.1227 259.608 28.1162C259.213 23.1076 255.962 27.0077 255.962 27.0077C255.962 27.0077 243.844 14.113 236.539 15.6325C229.24 17.1521 226.925 24.4042 226.925 24.4042V24.4042Z" fill="#EBC0B8"/>
<path d="M246.822 39.2438C247.002 40.0026 246.216 40.8411 245.069 41.1131C243.92 41.3871 242.842 40.9924 242.662 40.2316C242.482 39.4729 243.265 38.6364 244.415 38.3624C245.562 38.0904 246.64 38.4851 246.822 39.2438ZM230.855 42.1214C231.189 42.1623 231.536 42.1479 231.9 42.06C233.066 41.7921 233.839 40.9495 233.659 40.1866C233.481 39.4402 232.399 39.0454 231.252 39.3134C230.833 39.4033 230.454 39.5854 230.152 39.8185L230.855 42.1214V42.1214Z" fill="#E0AFA9"/>
<path d="M233.739 32.9345C233.626 32.9427 233.514 32.8916 233.447 32.7914C233.387 32.7034 231.992 30.7114 229.002 32.2821C228.841 32.366 228.647 32.3046 228.563 32.1451C228.543 32.1072 228.53 32.0658 228.527 32.0232C228.523 31.9806 228.527 31.9376 228.54 31.8968C228.553 31.8559 228.573 31.818 228.601 31.7852C228.628 31.7523 228.662 31.7252 228.7 31.7054C232.226 29.8525 233.972 32.4048 233.988 32.4294C234.089 32.5787 234.048 32.7811 233.896 32.8813C233.849 32.9141 233.794 32.9304 233.739 32.9345V32.9345ZM240.044 32.5725C240.003 32.5746 239.962 32.5705 239.924 32.5562C239.883 32.5432 239.845 32.5223 239.812 32.4947C239.78 32.467 239.753 32.4333 239.733 32.3953C239.714 32.3573 239.702 32.3158 239.698 32.2733C239.695 32.2307 239.7 32.1878 239.713 32.1471C239.723 32.1165 240.715 29.2041 245.047 29.8341C245.225 29.8606 245.347 30.0263 245.321 30.2042C245.294 30.3822 245.133 30.5049 244.953 30.4803C241.157 29.9261 240.339 32.323 240.333 32.3476C240.292 32.4784 240.173 32.5643 240.044 32.5725V32.5725ZM236.886 40.9495C236.774 40.9577 236.664 40.9474 236.551 40.9249C235.85 40.7695 235.506 40.0148 235.492 39.9821C235.449 39.888 235.455 39.7797 235.506 39.6897C236.553 37.8224 236.083 35.4276 236.077 35.4051C236.04 35.2292 236.154 35.0553 236.33 35.0206C236.512 34.9838 236.678 35.0983 236.715 35.2742C236.737 35.3785 237.212 37.804 236.16 39.8471C236.265 40.0108 236.455 40.2357 236.694 40.2889C236.917 40.3359 237.179 40.2337 237.471 39.978C237.606 39.8594 237.813 39.8737 237.929 40.0087C238.048 40.1437 238.036 40.3503 237.899 40.4689C237.557 40.7654 237.22 40.927 236.886 40.9495V40.9495ZM232.927 35.6198C232.995 36.6322 232.487 37.4891 231.796 37.5361C231.105 37.5832 230.487 36.7999 230.42 35.7875C230.352 34.7752 230.859 33.9182 231.553 33.8712C232.244 33.8242 232.86 34.6075 232.927 35.6198ZM244.018 34.8795C244.085 35.8918 243.578 36.7487 242.887 36.7958C242.196 36.8428 241.578 36.0595 241.511 35.0472C241.443 34.0369 241.95 33.1779 242.642 33.1308C243.335 33.0859 243.95 33.8692 244.018 34.8795Z" fill="#3E4268"/>
<path d="M234.26 45.7107C234.26 45.7107 238.077 47.1423 242.1 44.9355C243.157 46.5962 238.537 51.4146 234.26 45.7107Z" fill="#FCFAF7"/>
<path d="M256.485 27.9913L257.234 32.6338C257.234 32.6338 258.217 30.2859 258.224 28.5823C258.232 26.8767 256.485 27.9913 256.485 27.9913Z" fill="#E0AFA9"/>
<path d="M228.42 26.48C228.311 23.4512 230.729 19.8803 231.031 19.4447C229.088 22.4429 229.923 27.1836 230.109 28.0896C232.945 30.4149 237.271 32.0817 241.903 27.0834C251.123 17.1275 255.915 29.8484 255.915 29.8484C255.915 29.8484 257.301 17.2973 248.503 14.252C239.703 11.2048 231.336 14.3032 226.72 24.2897C226.72 24.2897 227.338 25.2898 228.42 26.48V26.48Z" fill="black"/>
<path d="M251.356 175.746L246.466 165.778L245.789 175.136L251.356 175.746ZM134.937 104.801L145.93 114.538L136.635 113.867L134.937 104.801Z" fill="#E0AFA9"/>
<path fill-rule="evenodd" clip-rule="evenodd" d="M247.791 147.435L227.657 426.114L0 409.675L21.9916 105.413L214.22 119.312L247.791 147.435Z" fill="white"/>
<path fill-rule="evenodd" clip-rule="evenodd" d="M45.3544 129.264L125.777 135.076L124.715 149.779L44.2919 143.968L45.3544 129.264Z" fill="#D3DAEA"/>
<path d="M61.3445 159.221L59.9599 178.388L55.2908 178.051L48.3353 165.665L47.4804 177.486L42.8113 177.149L44.1959 157.981L48.865 158.319L55.8165 170.76L56.6754 158.883L61.3445 159.221V159.221ZM76.8877 164.103L69.8155 163.591L69.5354 167.469L75.7874 167.921L75.5277 171.524L69.2756 171.073L68.9709 175.277L76.0431 175.789L75.7731 179.529L64.0339 178.68L65.4185 159.513L77.1577 160.362L76.8877 164.103V164.103ZM79.8634 160.558L84.8597 160.918L86.6083 175.069L91.03 161.364L96.1633 161.734L98.4314 175.924L102.225 162.174L107.248 162.538L100.867 181.343L95.2164 180.934L93.069 168.099L88.9909 180.484L83.3402 180.075L79.8634 160.558V160.558ZM115.819 182.615C111.696 182.317 108.622 180.036 108.766 176.151L113.735 176.511C113.766 177.995 114.643 178.77 115.952 178.867C117.316 178.965 118.241 178.345 118.321 177.226C118.576 173.676 108.856 174.895 109.402 168.101C109.663 164.469 112.786 162.665 116.799 162.953C120.977 163.256 123.638 165.532 123.566 169.205L118.515 168.841C118.521 167.606 117.701 166.806 116.447 166.688C115.331 166.579 114.443 167.093 114.355 168.293C114.114 171.625 123.697 170.807 123.233 177.222C123.002 180.443 120.296 182.938 115.819 182.615V182.615ZM132.428 164.356L131.303 179.92L137.418 180.362L137.158 183.965L126.374 183.186L127.759 164.019L132.428 164.356ZM152.939 169.598L145.867 169.087L145.587 172.964L151.839 173.416L151.579 177.02L145.327 176.568L145.022 180.773L152.092 181.284L151.822 185.025L140.081 184.176L141.466 165.009L153.207 165.857L152.939 169.598V169.598ZM155.886 166.052L170.711 167.123L170.441 170.864L165.363 170.498L164.249 185.924L159.58 185.587L160.694 170.16L155.616 169.794L155.886 166.052V166.052ZM172.707 167.266L187.533 168.338L187.263 172.079L182.185 171.713L181.07 187.139L176.401 186.802L177.516 171.375L172.437 171.009L172.707 167.266V167.266ZM202.035 173.144L194.965 172.633L194.685 176.511L200.937 176.963L200.677 180.566L194.425 180.114L194.12 184.319L201.192 184.83L200.922 188.571L189.181 187.722L190.566 168.555L202.307 169.404L202.035 173.144V173.144ZM213.858 170.24C218.556 170.58 220.707 173.451 220.466 176.783C220.292 179.186 218.818 181.356 215.807 182.018L219.681 189.929L214.41 189.548L210.948 182.024L209.829 181.943L209.306 189.178L204.636 188.841L206.021 169.674L213.858 170.24ZM213.304 174.097L210.41 173.889L210.066 178.64L212.96 178.848C214.707 178.975 215.592 178.132 215.701 176.631C215.803 175.21 215.052 174.224 213.304 174.097Z" fill="#9AAEF8"/>
<path fill-rule="evenodd" clip-rule="evenodd" d="M41.09 193.991L121.513 199.802L120.45 214.505L40.0276 208.694L41.09 193.991Z" fill="#D3DAEA"/>
<path fill-rule="evenodd" clip-rule="evenodd" d="M119.872 222.498L217.17 229.529L212.666 291.858L115.368 284.827L119.872 222.498Z" fill="#D3DAEA"/>
<path fill-rule="evenodd" clip-rule="evenodd" d="M39.4491 216.685L107.804 221.624L103.3 283.954L34.9452 279.014L39.4491 216.685Z" fill="#D3DAEA"/>
<path fill-rule="evenodd" clip-rule="evenodd" d="M34.3653 287.008L212.086 299.85L207.582 362.179L29.8614 349.337L34.3653 287.008Z" fill="#D3DAEA"/>
<path fill-rule="evenodd" clip-rule="evenodd" d="M247.791 147.435L215.564 151.719L214.22 119.312L247.791 147.435Z" fill="#F2F2F2"/>
<path d="M251.863 173.318C251.863 173.318 232.209 170.064 231.189 173.654C230.712 175.333 235.392 176.723 240.549 177.785C234.195 176.717 227.096 176.357 227.448 178.349C227.718 179.881 235.295 181.364 240.386 182.624C236.817 182.08 228.78 181.131 228.36 182.648C227.829 184.583 235.25 186.544 240.189 187.268C237.22 187.039 231.931 186.812 231.763 188.242C231.614 189.508 232.941 190.806 239.155 191.692C242.781 192.209 242.566 192.886 244.261 192.798C245.568 192.731 246.932 192.804 247.959 192.23C252.904 189.467 254.411 175.104 251.863 173.318Z" fill="#EBC0B8"/>
<path opacity="0.2" d="M232.234 188.52C232.426 187.87 234.559 187.69 234.753 187.833C234.753 187.833 234.582 189.563 234.418 189.845C234.254 190.127 232.042 189.17 232.234 188.52V188.52ZM228.577 182.816C228.769 182.168 230.902 181.986 231.097 182.129C231.097 182.129 230.923 183.859 230.759 184.141C230.596 184.424 228.385 183.466 228.577 182.816V182.816ZM228.015 178.098C228.207 177.447 230.34 177.265 230.534 177.411C230.534 177.411 230.362 179.141 230.197 179.421C230.035 179.703 227.824 178.746 228.015 178.098V178.098ZM231.896 173.523C232.089 172.875 234.222 172.692 234.414 172.836C234.414 172.836 234.242 174.566 234.079 174.848C233.917 175.13 231.704 174.171 231.896 173.523V173.523Z" fill="white"/>
<path d="M248.757 189.72C248.716 189.716 248.677 189.7 248.644 189.673C248.605 189.639 248.581 189.59 248.577 189.537C248.574 189.485 248.591 189.433 248.626 189.393C251.554 186.06 250.292 182.744 250.278 182.71C250.258 182.659 250.26 182.601 250.284 182.55C251.742 179.546 250.237 176.768 250.221 176.742C250.195 176.696 250.189 176.642 250.203 176.591C250.217 176.541 250.251 176.498 250.297 176.472C250.319 176.459 250.344 176.451 250.37 176.448C250.396 176.445 250.423 176.448 250.448 176.455C250.473 176.462 250.496 176.474 250.516 176.49C250.537 176.507 250.554 176.527 250.566 176.55C250.634 176.668 252.162 179.491 250.675 182.648C250.859 183.209 251.742 186.442 248.922 189.653C248.881 189.704 248.818 189.727 248.757 189.72ZM244.435 178.562C241.879 178.327 238.662 177.578 238.502 177.542C238.477 177.536 238.453 177.525 238.432 177.51C238.411 177.495 238.393 177.475 238.379 177.453C238.366 177.431 238.356 177.407 238.352 177.381C238.348 177.356 238.349 177.33 238.355 177.304C238.379 177.198 238.486 177.13 238.592 177.157C238.637 177.167 243.23 178.235 245.773 178.239C245.825 178.239 245.876 178.26 245.913 178.297C245.95 178.334 245.971 178.385 245.971 178.437C245.971 178.49 245.95 178.54 245.913 178.578C245.876 178.615 245.825 178.636 245.773 178.636C245.366 178.632 244.912 178.605 244.435 178.562ZM243.212 183.186C240.94 182.978 238.559 182.503 238.529 182.497C238.477 182.486 238.432 182.456 238.403 182.412C238.374 182.369 238.363 182.315 238.373 182.264C238.394 182.155 238.496 182.084 238.606 182.108C238.645 182.117 242.513 182.886 245.059 182.888C245.111 182.888 245.162 182.908 245.199 182.946C245.236 182.983 245.257 183.033 245.257 183.086C245.257 183.139 245.236 183.189 245.199 183.226C245.162 183.263 245.111 183.284 245.059 183.284C244.49 183.284 243.854 183.245 243.212 183.186ZM242.535 187.843C240.335 187.641 238.124 187.182 238.097 187.176C238.072 187.171 238.048 187.161 238.026 187.147C238.004 187.132 237.986 187.113 237.972 187.092C237.958 187.07 237.948 187.046 237.943 187.02C237.938 186.995 237.938 186.969 237.944 186.943C237.966 186.837 238.071 186.765 238.177 186.79C238.212 186.796 241.801 187.54 244.347 187.542C244.4 187.542 244.45 187.563 244.487 187.6C244.525 187.638 244.546 187.688 244.546 187.741C244.546 187.793 244.525 187.844 244.487 187.881C244.45 187.918 244.4 187.939 244.347 187.939C243.777 187.937 243.157 187.9 242.535 187.843V187.843Z" fill="#E0AFA9"/>
<path d="M135.561 104.611C135.561 104.611 141.541 121.627 138.502 123.099C137.081 123.789 135.105 119.833 133.352 115.399C135.299 120.899 136.733 127.173 134.903 127.171C133.494 127.169 130.984 120.645 129.064 116.303C130.109 119.4 132.215 126.421 130.925 127.03C129.285 127.807 126.37 121.496 124.953 117.205C125.624 119.817 126.655 124.498 125.405 124.873C124.299 125.204 122.934 124.224 121.171 118.821C120.143 115.667 119.57 115.966 119.384 114.44C119.241 113.262 118.961 112.06 119.31 111.053C120.998 106.213 133.571 102.619 135.561 104.611V104.611Z" fill="#EBC0B8"/>
<path opacity="0.2" d="M125.08 124.498C125.628 124.224 125.456 122.294 125.297 122.144C125.297 122.144 123.781 122.57 123.556 122.76C123.331 122.948 124.532 124.77 125.08 124.498ZM130.739 126.866C131.287 126.594 131.115 124.664 130.955 124.513C130.955 124.513 129.44 124.938 129.215 125.128C128.99 125.316 130.191 127.138 130.739 126.866ZM135.036 126.627C135.586 126.353 135.412 124.423 135.254 124.273C135.254 124.273 133.739 124.699 133.514 124.889C133.287 125.079 134.487 126.899 135.036 126.627ZM138.506 122.449C139.054 122.177 138.883 120.246 138.723 120.095C138.723 120.095 137.208 120.52 136.983 120.711C136.758 120.901 137.96 122.723 138.506 122.449Z" fill="white"/>
<path d="M121.421 109.951C121.43 109.983 121.447 110.012 121.472 110.034C121.496 110.057 121.525 110.072 121.558 110.079C121.59 110.085 121.623 110.083 121.654 110.072C121.686 110.061 121.713 110.042 121.734 110.017C124.249 106.884 127.403 107.489 127.434 107.495C127.483 107.505 127.534 107.495 127.575 107.464C130.027 105.693 132.737 106.601 132.766 106.609C132.86 106.642 132.962 106.593 132.993 106.499C133 106.477 133.004 106.453 133.003 106.43C133.001 106.406 132.995 106.383 132.985 106.362C132.975 106.341 132.96 106.322 132.943 106.307C132.925 106.291 132.904 106.279 132.882 106.272C132.766 106.231 130.009 105.311 127.426 107.131C126.898 107.055 123.875 106.773 121.454 109.792C121.417 109.839 121.407 109.898 121.421 109.951V109.951ZM132.05 112.058C132.661 114.301 133.831 117.052 133.89 117.189C133.929 117.279 134.034 117.322 134.126 117.283C134.216 117.244 134.258 117.14 134.22 117.048C134.203 117.009 132.532 113.08 132.129 110.814C132.125 110.791 132.117 110.769 132.104 110.749C132.091 110.729 132.075 110.712 132.055 110.698C132.036 110.685 132.014 110.675 131.991 110.67C131.968 110.665 131.944 110.665 131.921 110.669C131.874 110.678 131.833 110.704 131.806 110.743C131.779 110.781 131.768 110.829 131.776 110.876C131.841 111.238 131.935 111.639 132.05 112.058ZM128.117 113.872C128.661 115.866 129.454 117.913 129.465 117.94C129.501 118.032 129.606 118.077 129.696 118.042C129.788 118.005 129.837 117.905 129.798 117.811C129.784 117.778 128.493 114.449 128.092 112.178C128.088 112.155 128.08 112.133 128.067 112.113C128.055 112.093 128.038 112.075 128.019 112.062C127.999 112.048 127.977 112.039 127.954 112.034C127.931 112.029 127.907 112.029 127.884 112.033C127.786 112.052 127.72 112.144 127.739 112.242C127.831 112.749 127.963 113.307 128.117 113.872ZM124.072 115.205C124.597 117.136 125.352 119.036 125.362 119.058C125.399 119.15 125.503 119.195 125.595 119.159C125.617 119.15 125.637 119.137 125.654 119.121C125.671 119.104 125.685 119.085 125.694 119.063C125.704 119.041 125.708 119.018 125.709 118.994C125.709 118.971 125.704 118.947 125.695 118.925C125.683 118.895 124.46 115.811 124.057 113.541C124.054 113.516 124.046 113.493 124.034 113.472C124.022 113.451 124.005 113.433 123.986 113.419C123.966 113.405 123.944 113.394 123.92 113.389C123.896 113.383 123.872 113.383 123.848 113.387C123.824 113.391 123.801 113.401 123.781 113.414C123.761 113.427 123.744 113.445 123.73 113.465C123.717 113.485 123.708 113.508 123.704 113.532C123.699 113.556 123.7 113.58 123.705 113.604C123.791 114.113 123.922 114.661 124.072 115.205Z" fill="#E0AFA9"/>
<g opacity="0.52">
<path d="M263.897 448.731L265.3 439.368C265.752 436.25 266.198 433.131 266.566 430.006C266.758 428.445 266.932 426.881 267.073 425.316C267.226 423.752 267.341 422.185 267.421 420.618C267.49 419.052 267.529 417.481 267.455 415.917C267.39 414.354 267.216 412.781 266.645 411.305C267.014 412.002 267.308 412.753 267.476 413.532C267.672 414.305 267.799 415.092 267.901 415.88C268.085 417.461 268.141 419.052 268.132 420.639C268.116 423.815 267.838 426.975 267.472 430.118C267.083 433.259 266.598 436.384 266.001 439.489C265.412 442.594 264.719 445.68 263.897 448.731Z" fill="white"/>
</g>
<g opacity="0.52">
<path d="M302.342 473.87L309.776 469.344C312.244 467.825 314.707 466.303 317.13 464.72C318.345 463.937 319.552 463.137 320.738 462.315C321.932 461.501 323.106 460.661 324.26 459.791C325.407 458.916 326.538 458.02 327.597 457.045C328.661 456.077 329.667 455.028 330.377 453.756C330.101 454.427 329.745 455.077 329.295 455.654C328.865 456.247 328.385 456.801 327.888 457.337C326.88 458.399 325.791 459.376 324.667 460.305C322.415 462.164 320.022 463.831 317.588 465.424C315.142 467.001 312.649 468.5 310.107 469.907C307.567 471.324 304.98 472.651 302.342 473.87V473.87Z" fill="white"/>
</g>
<path d="M229.021 417.518C229.021 420.253 226.804 422.468 224.072 422.468C221.339 422.468 219.122 420.251 219.122 417.518C219.122 414.784 221.339 412.569 224.072 412.569C226.804 412.569 229.021 414.784 229.021 417.518Z" fill="#F1F2FF"/>
<path d="M342.963 320.136C338.913 329.405 335.115 338.096 331.551 346.265C331.369 346.68 330.829 346.913 330.342 346.79C315.396 343.034 300.78 338.068 286.639 331.941C286.181 331.742 285.895 331.227 286.003 330.787C288.15 322.136 290.437 312.931 292.873 303.114C292.905 302.979 292.966 302.853 293.051 302.743C293.136 302.633 293.243 302.543 293.366 302.478L293.37 302.476C293.58 302.361 293.828 302.321 294.079 302.38C310.629 306.37 326.904 311.9 342.458 318.819C342.672 318.915 342.844 319.085 342.944 319.297C342.967 319.34 342.985 319.383 342.997 319.426C342.999 319.436 343.002 319.438 343.002 319.438C343.071 319.668 343.058 319.915 342.963 320.136V320.136Z" fill="white"/>
<path d="M324.892 331.679C323.669 329.611 322.302 327.591 320.703 325.891C323.29 325.936 325.945 325.676 328.651 325.079C333.714 323.993 338.596 322.106 343.02 319.457L343.036 319.447L343.026 319.43C342.959 319.255 342.85 319.083 342.689 318.966C342.824 319.077 342.924 319.234 342.975 319.418C338.445 321.827 333.571 323.56 328.536 324.517C325.524 325.112 322.691 325.333 320.028 325.204C318.48 323.693 316.721 322.468 314.688 321.742C312.451 321.038 309.987 320.981 307.43 321.396C301.151 317.522 296.478 310.904 293.392 302.474C293.605 302.362 293.842 302.321 294.071 302.372C293.832 302.304 293.57 302.339 293.341 302.462L293.351 302.478C294.593 306.131 296.075 309.783 298.202 313.007C300.43 316.627 303.201 319.484 306.375 321.562C299.701 322.901 292.56 327.161 287.298 331.106C292.918 327.482 300.632 323.23 307.512 322.286C307.913 322.228 308.34 322.177 308.735 322.144C310.727 321.977 312.621 322.132 314.369 322.686C315.868 323.224 317.222 324.051 318.49 325.083C318.773 325.321 319.063 325.574 319.339 325.836C321.266 327.634 322.904 329.875 324.356 332.17C326.923 336.36 329.013 341.007 330.706 345.858C329.311 340.798 327.389 336.002 324.892 331.679V331.679Z" fill="#6F4EB9"/>
<path d="M118.212 25.6783C120.908 37.8163 123.433 49.1996 125.812 59.8938C125.933 60.4357 125.564 61.0615 124.992 61.2926C107.397 68.4037 89.3509 74.0401 70.834 78.2102C70.2348 78.3431 69.5783 78.0404 69.3676 77.5251C65.2323 67.379 60.8332 56.5806 56.1396 45.0684C56.0046 44.7351 56.023 44.3792 56.1661 44.0806L56.1682 44.0765C56.2966 43.8018 56.5226 43.5846 56.8022 43.4671C76.1269 35.4378 96.2942 29.1387 116.752 24.7395C117.046 24.6761 117.339 24.7293 117.582 24.8623C117.635 24.8888 117.684 24.9195 117.727 24.9522C117.973 25.1266 118.145 25.385 118.212 25.6783V25.6783Z" fill="white"/>
<path d="M108.633 50.2346C105.921 49.0668 103.098 48.0504 100.28 47.5227C102.882 45.6944 105.33 43.5101 107.583 40.9578C111.825 36.211 115.304 30.7995 117.779 24.9647L117.787 24.9442L117.766 24.936C117.572 24.8113 117.339 24.7192 117.095 24.7192C117.31 24.7315 117.521 24.8154 117.707 24.9606C114.954 30.6359 111.369 35.8858 107.064 40.4833C104.505 43.2565 101.851 45.5287 99.1124 47.3305C96.4803 46.9501 93.8441 47.0094 91.3019 47.762C88.5696 48.6844 86.0806 50.4125 83.8432 52.6786C74.8016 53.3821 65.3673 50.1958 56.1927 44.0603C56.3216 43.7944 56.5281 43.5817 56.794 43.4672C56.5077 43.5735 56.2725 43.7985 56.1355 44.0869L56.1559 44.0951C60.0356 46.8233 64.1545 49.3757 68.6007 51.0343C73.4334 53.016 78.2579 53.8443 82.9148 53.6091C77.2599 59.7732 73.2534 69.1789 70.8851 76.9096C73.8404 69.2382 78.4195 59.4276 84.5672 53.5048C84.9231 53.1572 85.3096 52.7972 85.6798 52.4802C87.5368 50.8686 89.5288 49.6538 91.668 48.9359C93.5455 48.3837 95.4884 48.2222 97.4967 48.3326C97.9487 48.3653 98.4211 48.4042 98.8854 48.4656C102.1 48.8562 105.352 49.8951 108.457 51.1202C114.042 53.423 119.482 56.5214 124.681 60.1127C119.625 56.0879 114.242 52.7174 108.633 50.2346V50.2346Z" fill="#BAC8E5"/>
</svg>
