<svg width="77" height="18" viewBox="0 0 77 18" fill="none" xmlns="http://www.w3.org/2000/svg">
<path d="M22.2862 1.644L17.9962 17H14.3662L11.4842 6.066L8.47019 17L4.86219 17.022L0.726188 1.644H4.02619L6.73219 13.568L9.85619 1.644H13.2882L16.2362 13.502L18.9642 1.644H22.2862ZM23.5053 10.862C23.5053 9.63 23.7473 8.53733 24.2313 7.584C24.73 6.63067 25.3973 5.89733 26.2333 5.384C27.084 4.87067 28.03 4.614 29.0713 4.614C29.9806 4.614 30.7726 4.79733 31.4473 5.164C32.1366 5.53067 32.6866 5.99267 33.0973 6.55V4.812H36.1993V17H33.0973V15.218C32.7013 15.79 32.1513 16.2667 31.4473 16.648C30.758 17.0147 29.9586 17.198 29.0493 17.198C28.0226 17.198 27.084 16.934 26.2333 16.406C25.3973 15.878 24.73 15.1373 24.2313 14.184C23.7473 13.216 23.5053 12.1087 23.5053 10.862ZM33.0973 10.906C33.0973 10.158 32.9506 9.52 32.6573 8.992C32.364 8.44933 31.968 8.03867 31.4693 7.76C30.9706 7.46667 30.4353 7.32 29.8633 7.32C29.2913 7.32 28.7633 7.45933 28.2793 7.738C27.7953 8.01667 27.3993 8.42733 27.0913 8.97C26.798 9.498 26.6513 10.1287 26.6513 10.862C26.6513 11.5953 26.798 12.2407 27.0913 12.798C27.3993 13.3407 27.7953 13.7587 28.2793 14.052C28.778 14.3453 29.306 14.492 29.8633 14.492C30.4353 14.492 30.9706 14.3527 31.4693 14.074C31.968 13.7807 32.364 13.37 32.6573 12.842C32.9506 12.2993 33.0973 11.654 33.0973 10.906ZM42.2875 0.72V17H39.2075V0.72H42.2875ZM48.4105 0.72V17H45.3305V0.72H48.4105ZM62.7835 10.642C62.7835 11.082 62.7542 11.478 62.6955 11.83H53.7855C53.8589 12.71 54.1669 13.3993 54.7095 13.898C55.2522 14.3967 55.9195 14.646 56.7115 14.646C57.8555 14.646 58.6695 14.1547 59.1535 13.172H62.4755C62.1235 14.3453 61.4489 15.3133 60.4515 16.076C59.4542 16.824 58.2295 17.198 56.7775 17.198C55.6042 17.198 54.5482 16.9413 53.6095 16.428C52.6855 15.9 51.9595 15.1593 51.4315 14.206C50.9182 13.2527 50.6615 12.1527 50.6615 10.906C50.6615 9.64467 50.9182 8.53733 51.4315 7.584C51.9449 6.63067 52.6635 5.89733 53.5875 5.384C54.5115 4.87067 55.5749 4.614 56.7775 4.614C57.9362 4.614 58.9702 4.86333 59.8795 5.362C60.8035 5.86067 61.5149 6.572 62.0135 7.496C62.5269 8.40533 62.7835 9.454 62.7835 10.642ZM59.5935 9.762C59.5789 8.97 59.2929 8.33933 58.7355 7.87C58.1782 7.386 57.4962 7.144 56.6895 7.144C55.9269 7.144 55.2815 7.37867 54.7535 7.848C54.2402 8.30267 53.9249 8.94067 53.8075 9.762H59.5935ZM68.6177 7.342V13.238C68.6177 13.6487 68.713 13.9493 68.9037 14.14C69.109 14.316 69.4463 14.404 69.9157 14.404H71.3457V17H69.4097C66.8137 17 65.5157 15.7387 65.5157 13.216V7.342H64.0637V4.812H65.5157V1.798H68.6177V4.812H71.3457V7.342H68.6177ZM74.925 17.154C74.3676 17.154 73.9056 16.9853 73.539 16.648C73.187 16.296 73.011 15.8633 73.011 15.35C73.011 14.8367 73.187 14.4113 73.539 14.074C73.9056 13.722 74.3676 13.546 74.925 13.546C75.4676 13.546 75.915 13.722 76.267 14.074C76.619 14.4113 76.795 14.8367 76.795 15.35C76.795 15.8633 76.619 16.296 76.267 16.648C75.915 16.9853 75.4676 17.154 74.925 17.154Z" fill="black"/>
</svg>
